<svg xmlns="http://www.w3.org/2000/svg" xmlns:xlink="http://www.w3.org/1999/xlink" width="490" height="542" viewBox="0 0 490 542"><defs><clipPath id="b"><rect width="490" height="542"/></clipPath></defs><g id="a" clip-path="url(#b)"><path d="M374.766,372.574c-1.651-1.534-3.07-2.865-4.5-4.182-12.975-11.927-26.871-22.6-42.384-31.068a135.29,135.29,0,0,0-42.5-15.156,112.64,112.64,0,0,0-31.867-.814c-20.829,2.425-39.669,10.242-57.3,21.273a227.719,227.719,0,0,0-34.4,26.836c-.459.427-.916.857-1.385,1.274a3.852,3.852,0,0,1-.652.313L142.406,347.7c.788-.385,1.429-.729,2.1-1.02a172.152,172.152,0,0,0,42.51-26.3,170.675,170.675,0,0,0,39.47-49.087c9.769-17.9,16.662-36.91,21.788-56.6a388.689,388.689,0,0,0,8.864-45.92q3.546-26.223,4.6-52.661c.327-7.937.535-15.88.8-23.82.021-.611.087-1.222.139-1.942h12.754c0,.931-.012,1.751,0,2.569.177,11.08.194,22.166.581,33.238.432,12.326,1.377,24.625,2.7,36.894a390.655,390.655,0,0,0,10.56,58.75c5.289,19.868,12.447,39,22.614,56.933,12.069,21.286,27.693,39.392,47.858,53.425a156.343,156.343,0,0,0,28.712,15.76c.756.318,1.5.663,2.457,1.087C385.514,356.893,380.207,364.637,374.766,372.574ZM268.979,238.792l-.433.017c-.93,2.429-1.838,4.867-2.795,7.287q-1.5,3.785-3.073,7.537-1.539,3.655-3.168,7.272-1.679,3.707-3.464,7.367-1.738,3.565-3.583,7.076-1.892,3.6-3.886,7.155c-1.3,2.3-2.651,4.577-4.014,6.843s-2.776,4.516-4.324,7.028a227.728,227.728,0,0,1,27.92-1.462c9.232.176,18.458.727,27.945,1.123C284.557,278.152,275.829,258.916,268.979,238.792Z" transform="translate(-24.564 -56.79)" fill="#fff"/><path d="M408.149,590.411v10.968c7.457.184,14.741.06,22.023.083,7.241.022,14.483,0,21.67,0a2.369,2.369,0,0,1,.139.308.382.382,0,0,1,0,.186.552.552,0,0,1-.1.185c-.129.164-.257.33-.4.484Q440,615.217,428.52,627.806a2.548,2.548,0,0,0-.187.426l24.286,25.482c-1.7.5-53.408.555-55.5.1V638.592l3.259-1.653-.084-.3H112.214l-.1.277,3.275,1.664v15.377H60.2a.561.561,0,0,1-.1-.159.4.4,0,0,1,.021-.194.546.546,0,0,1,.084-.186c.13-.164.261-.328.4-.479q11.672-12.271,23.344-24.54a2.824,2.824,0,0,0,.21-.454l-24.022-26.28a56.391,56.391,0,0,1,7.511-.193c2.439-.042,4.879-.009,7.318-.009h29.278V590.411Zm-301,43.211H405.316V593.27c-2.782-.464-296.669-.331-298.169.126Zm292.72,17.555a5.38,5.38,0,0,0,.881.16q22.565-.023,45.129-.067c.049,0,.109-.067.145-.116a2.131,2.131,0,0,0,.143-.3l-21.653-22.722,21.85-23.908H408.217v32.2l-8.351,3.82ZM104.246,636.419V604.248H66.168l21.82,23.892c-3.715,3.9-7.323,7.668-10.911,11.454s-7.273,7.536-11.008,11.62h46.7c0-3.186-.054-6.24.026-9.289a2.129,2.129,0,0,0-1.525-2.352C108.955,638.627,106.7,637.532,104.246,636.419Z" transform="translate(-10.147 -144.384)" fill="#fff"/><path d="M94.912,317.06a5.82,5.82,0,0,1,4.847-1.116c.935.172,1.025,1.055,1.023,1.837-.007,2.02-.06,4.04-.088,6.059-.011.756,0,1.512,0,2.4h10.757c.161-2.567.313-4.979.462-7.392.026-.417.028-.836.059-1.252.139-1.822.348-1.958,2.681-1.539-.1,1.671-.234,3.381-.285,5.093-.138,4.525-.239,9.05-.349,13.575a7.34,7.34,0,0,0,.054,1.043c.223,1.883.863,2.4,2.764,2.234.481-.043.958-.134,1.7-.242,1.118-2.612,2.273-5.352,3.468-8.074.41-.934.944-1.812,1.384-2.734,1.528-3.205,3.011-6.431,4.565-9.623.816-1.674.969-1.7,3.129-1.3.591,3.057,1.152,6.194,1.811,9.312.59,2.79,1.269,5.56,1.949,8.33a14.493,14.493,0,0,0,.773,2.159c.662,1.573,1.727,2.512,3.572,2.159a1.937,1.937,0,0,1,.612.092c-1.229,2.086-4.845,2.279-5.959.228a27.729,27.729,0,0,1-1.751-4.671c-.365-1.119-.592-2.282-.892-3.466H123.68c-.685,1.873-1.351,3.691-2.015,5.509-.359.98-.655,1.989-1.09,2.934-.447.973-1.728,1.587-2.39.935-.838-.825-1.444-.393-2.168-.187-3.328.945-4.421.194-4.513-3.223-.056-2.089-.007-4.179-.006-6.27,0-.678,0-1.356,0-2.09H100.641c-.16,3.891-.313,7.61-.47,11.457l-2.437.426c0-.943-.016-1.7,0-2.445q.205-8.252.42-16.5c.012-.487.017-.976,0-1.462-.065-1.651-.341-1.933-1.935-2.053C95.783,317.165,95.348,317.107,94.912,317.06Zm34.118,1.63-.474-.065c-1.526,3.269-3.015,6.553-4.24,10.01h6.565C130.238,325.182,129.634,321.935,129.03,318.69Z" transform="translate(-16.245 -96.284)" fill="#fff"/><path d="M483.781,438.609a6.946,6.946,0,0,1-2.158,4.712,1.87,1.87,0,0,1-2.342.028,20.217,20.217,0,0,1-2.545-1.806c-3.487-2.987-6.941-6.012-10.529-8.965,2.644,6.284,5.954,12.256,8.638,18.748l-18.923-7.2-.182.332c.561.495,1.133.977,1.679,1.487q4.886,4.561,9.758,9.133a11.63,11.63,0,0,1,1,1.069c1.193,1.441,1.163,1.732-.393,3.406-.285-.389-.582-.736-.814-1.123a42.5,42.5,0,0,0-7.258-8.591c-1.756-1.688-3.583-3.3-5.422-4.9-1.709-1.484-1.882-1.443-3.327.222a6.4,6.4,0,0,1-.591.577c-.034.031-.131-.01-.384-.038,0-.261-.1-.6.017-.817a34.123,34.123,0,0,1,1.754-3.082c.929-1.4,1.357-1.538,2.99-.945,3.27,1.186,6.519,2.43,9.776,3.653,2.26.849,4.518,1.7,7.15,2.695-.326-.826-.481-1.317-.705-1.774-2.482-5.061-4.985-10.112-7.459-15.178-.848-1.736-.8-1.809.885-3.233.479.436.977.89,1.477,1.343q5.8,5.26,11.606,10.517c.309.28.641.537.974.789,2.188,1.65,2.752,1.561,4.513-.667C483.07,438.865,483.307,438.829,483.781,438.609Z" transform="translate(-78.435 -115.763)" fill="#fff"/><path d="M112.18,452.629c1.132-.338,1.841-.52,2.531-.76,5.126-1.78,10.244-3.582,15.373-5.352,1.73-.6,1.875-.5,2.9,1.4-.5.421-1.033.85-1.549,1.3q-5.926,5.121-11.843,10.252a12.275,12.275,0,0,0-1.453,1.5c-1.167,1.435-1.113,2.14.2,3.392.285.272.586.527,1.153,1.036-.636.056-.981.2-1.189.086a18.742,18.742,0,0,1-2.842-1.72,2.035,2.035,0,0,1-.435-3.12,13,13,0,0,1,1.95-2.163c3.093-2.808,6.22-5.578,9.335-8.363a3.375,3.375,0,0,0,1.057-1.406l-19.624,6.921c.365-1.969,1.513-3.283,2.244-4.775s1.568-2.949,2.35-4.425q1.221-2.306,2.427-4.622a28.971,28.971,0,0,0,2.055-4.593c-.4.313-.812.613-1.2.94q-5.193,4.37-10.382,8.743a15.77,15.77,0,0,1-1.513,1.115c-1.563,1.019-1.918.942-3.346-.767a4.008,4.008,0,0,1,.61-.419c6.15-2.738,11.076-7.162,15.962-11.63,1.139-1.042,1.084-1.437.043-2.6-.3-.338-.632-.653-1.236-1.274.7,0,1.047-.108,1.241.019a29.968,29.968,0,0,1,2.54,1.828c1.681,1.367,1.787,1.817.8,3.72-2.337,4.512-4.706,9.006-7.058,13.51C112.972,450.987,112.689,451.594,112.18,452.629Z" transform="translate(-17.202 -116.508)" fill="#fff"/><path d="M246.385,507.913c-1.443,4.934-2.866,9.733-4.244,14.544a39.723,39.723,0,0,0-.991,4.269c-.359,2.112.158,2.746,2.281,3.082.313.049.624.127,1.043.214-1.467,1.11-4.226,1.288-5.258.281a2.732,2.732,0,0,1-.755-1.825,20.93,20.93,0,0,1,.555-3.487c.145-.72.378-1.422.693-2.579-1.214,1.31-2.055,2.319-3,3.216a8.774,8.774,0,0,1-5.3,2.683c-3.606.314-6.176-1.845-6.124-5.458a20.71,20.71,0,0,1,.944-5.53c.893-3,2.034-5.921,3.068-8.878.207-.591.443-1.175.6-1.78.287-1.111.064-1.523-.995-1.888-.57-.2-1.159-.337-2.231-.643.786-.308,1.109-.548,1.424-.539a21.414,21.414,0,0,1,2.908.258c1.859.316,2.207.912,1.647,2.752-.263.864-.647,1.691-.929,2.55-1.147,3.5-2.322,7-3.383,10.529a10.071,10.071,0,0,0-.315,3.1,3.574,3.574,0,0,0,4.66,3.611,8.1,8.1,0,0,0,3.936-2.263,17.629,17.629,0,0,0,4.466-7.45c.822-2.587,1.581-5.194,2.409-7.779C244.1,507,244.437,506.9,246.385,507.913Z" transform="translate(-39.082 -129.177)" fill="#fff"/><path d="M177.1,317.18c.664-.469.891-.756,1.158-.8,3.99-.646,7.97-1.306,12.041-.605,4.83.831,7.511,3.532,8.134,8.428a15.177,15.177,0,0,1-1.911,9.867c-2.494,4.236-6.989,6.235-12.17,5.509-1.232-.172-2.472-.3-3.962-.477,0-.6-.019-1.33,0-2.062q.246-8.146.5-16.294a16.384,16.384,0,0,0-.007-1.672c-.1-1.429-.357-1.671-1.765-1.768C178.619,317.271,178.108,317.242,177.1,317.18Zm6.58-.243c-.247,7.1-.488,14.026-.728,20.9,5.819,1.89,10.63-.639,12.164-6.281a16.745,16.745,0,0,0,.143-8.467,7.484,7.484,0,0,0-4.981-5.71A13.007,13.007,0,0,0,183.685,316.936Z" transform="translate(-30.643 -96.224)" fill="#fff"/><path d="M254.563,444.063a7.247,7.247,0,0,1-4.222,1.318,1.825,1.825,0,0,1-2-1.492,13.435,13.435,0,0,1-.36-2.672c-.047-2.568-.016-5.139-.016-7.677-1.826-.456-8.01-.347-10.793.189-.157,3.672-.316,7.391-.479,11.21l-2.466.319c0-1.025-.019-1.9,0-2.773q.2-8.14.409-16.28c.011-.417.012-.836,0-1.253-.06-1.825-.212-1.968-2.082-2.036-.343-.012-.686-.044-1.028-.081-.043,0-.077-.093-.246-.312.773-.916,1.962-.773,2.945-.986a3.236,3.236,0,0,1,2.2.159,2.7,2.7,0,0,1,.916,1.914c.091,1.521-.074,3.057-.1,4.587-.025,1.235,0,2.47,0,3.7h10.786c.125-2.434.238-4.645.351-6.854.028-.557.033-1.114.078-1.669.155-1.966.43-2.154,2.641-1.718.025.43.09.9.072,1.359q-.328,8.341-.674,16.682a9.6,9.6,0,0,0,.031,1.251c.232,2.556,1.188,3,3.006,2.65a5.139,5.139,0,0,1,.95-.008Z" transform="translate(-40.133 -114.783)" fill="#fff"/><path d="M467.128,341.2c.178-6.142.351-12.119.523-18.1.01-.348.006-.7,0-1.044-.019-2.481-.049-2.507-2.563-2.64a8.259,8.259,0,0,1-1.1-.271c.619-.385.9-.693,1.227-.743,3.781-.582,7.551-1.187,11.411-.615,5.4.8,8.526,4.08,8.59,9.539a20.6,20.6,0,0,1-.819,6.155,11.226,11.226,0,0,1-11.658,8.244C470.883,341.679,469.037,341.39,467.128,341.2Zm3.231-22c-.229,6.9-.459,13.827-.687,20.7,5.514,1.89,10.458-.56,12.052-5.86a18.285,18.285,0,0,0,.491-7.649C481.581,321.395,477.744,317.656,470.359,319.206Z" transform="translate(-80.895 -96.59)" fill="#fff"/><path d="M294.178,513.937c.54-.4.68-.578.854-.628a36.8,36.8,0,0,1,11.289-1.741c5.58.18,8.751,2.889,9.725,8.409a15.439,15.439,0,0,1-.714,8.217,11.441,11.441,0,0,1-10.691,7.635c-1.788.05-3.578.008-5.429.008-.14-2.875-.253-5.648-.417-8.417-.213-3.61-.412-7.223-.719-10.826-.211-2.474-.29-2.463-2.766-2.447A8.292,8.292,0,0,1,294.178,513.937Zm7.508,20.248c5.818,1.4,10.332-1.67,11.32-6.2a17.533,17.533,0,0,0-.379-9.467,8.608,8.608,0,0,0-12.068-4.871C300.935,520.5,301.311,527.363,301.686,534.185Z" transform="translate(-51.15 -130.571)" fill="#fff"/><path d="M489.809,398.561c.587.322,1.172.649,1.762.967q5.606,3.016,11.211,6.035a21.955,21.955,0,0,1,2.135,1.307c1.657,1.158,1.7,1.531.45,3.418-4.725-4.561-10.437-7.593-16.213-10.522-.31-.158-.617-.324-.937-.458-1.439-.6-1.792-.483-2.511.842-.225.415-.431.841-.793,1.552-.205-.545-.425-.83-.389-1.079.608-4.33,1.072-4.777,5.417-5.184,5.2-.486,10.395-.944,15.591-1.426.674-.063,1.341-.191,2.488-.358-.855-.518-1.278-.812-1.732-1.043-3.286-1.673-6.589-3.314-9.863-5.009a27.977,27.977,0,0,1-3.218-1.933c-1.569-1.1-1.577-1.752-.138-3.362,4.219,4.526,9.792,6.97,15.114,9.8,1.471.783,2.967,1.523,4.462,2.288.282,1.333-.524,1.573-1.514,1.676-2.7.281-5.394.593-8.095.864-4.359.435-8.721.847-13.082,1.269Z" transform="translate(-84.492 -107.931)" fill="#fff"/><path d="M165.882,501.727c-1.338-.068-1.415-.862-1.4-1.765.081-4.039.165-8.079.209-12.119.033-3.059.007-6.12.007-9.331-.335.386-.7.737-.983,1.142-2.451,3.47-4.88,6.956-7.335,10.423a27.128,27.128,0,0,1-1.937,2.462c-1.238,1.375-1.636,1.359-3.331.01,1.255-1.193,2.559-2.325,3.738-3.575A83.971,83.971,0,0,0,163.932,477c1.01-1.55.887-1.871-.736-2.995a1.828,1.828,0,0,1-.713-.947,7.313,7.313,0,0,1,4.789,1.94,3.966,3.966,0,0,1,.48,2.546c-.144,5.639-.36,11.278-.544,16.917a4.791,4.791,0,0,0,.376,2.306c.351-.467.723-.919,1.05-1.4,2.065-3.059,4.1-6.138,6.185-9.185a24.791,24.791,0,0,1,2.187-2.794c1.307-1.424,1.914-1.346,3.346.308-4.473,3.166-7.344,7.715-10.416,12.09C168.543,497.769,167.2,499.79,165.882,501.727Z" transform="translate(-26.09 -123.828)" fill="#fff"/><path d="M66.292,390.494a9.593,9.593,0,0,1-3.056-3.961,1.876,1.876,0,0,1,.8-2.376,18.49,18.49,0,0,1,2.779-1.414c2.246-.9,4.522-1.734,6.993-2.672L69.683,370.04l-10.832,3.7c-.436-.754-.775-1.342-1.243-2.154.8-.319,1.462-.616,2.148-.859q7.866-2.791,15.737-5.567c.525-.186,1.054-.365,1.556-.6,1.266-.593,1.406-.954.975-2.3q-.215-.676-.406-1.359c-.011-.04.079-.107.122-.163a6.729,6.729,0,0,1,2.717,4.289c-.012.946-.654,1.347-1.387,1.624-1.692.638-3.4,1.227-5.1,1.839-.91.327-1.817.662-2.989,1.09l4.041,10.053c1.587-.519,3.081-1.01,4.576-1.5,1.191-.386,2.376-.791,3.578-1.142,1.9-.556,2.185-.341,2.5,1.881-.477.176-.977.374-1.487.548q-7.307,2.484-14.616,4.966c-.591.2-1.172.442-1.742.7-2.549,1.15-2.716,1.639-1.544,4.267A4.2,4.2,0,0,1,66.292,390.494Z" transform="translate(-9.71 -104.153)" fill="#fff"/><path d="M386.984,318.745a8.759,8.759,0,0,1,4.566-.828,1.351,1.351,0,0,1,1.332,1.359c.076.968.07,1.942.075,2.914.009,2.005,0,4.01,0,6.123h10.654c.144-2.516.277-4.863.409-7.21.024-.417.028-.836.057-1.253.136-1.989.338-2.133,2.688-1.768,0,.427.015.886,0,1.344q-.314,8.661-.63,17.321a6.6,6.6,0,0,0,.076,1.25c.261,1.66.817,2.116,2.5,2.1.466,0,.932,0,1.479,0-1.1,1.3-3.792,2.112-5.081,1.57a2.5,2.5,0,0,1-1.412-2.385c-.106-1.6-.083-3.2-.1-4.8-.012-1.519,0-3.036,0-4.815a95.117,95.117,0,0,0-10.8.342c-.163,3.807-.321,7.477-.484,11.284l-2.464.461c0-.939-.016-1.688,0-2.437q.205-8.354.421-16.709c.012-.487.022-.976,0-1.462-.079-1.481-.4-1.792-1.892-1.866-.453-.022-.908,0-1.362,0Z" transform="translate(-67.407 -96.647)" fill="#fff"/><path d="M98.58,425.311a42.4,42.4,0,0,0-3.66,10.127c-.3,1.6.463,2.8,1.858,4.09-.735,0-1.088.108-1.3-.02a16.409,16.409,0,0,1-1.853-1.345,3.187,3.187,0,0,1-1.162-3.549c.676-2.259,1.393-4.513,2.234-6.715.714-1.869,1.628-3.663,2.558-5.721.7.652,1.22,1.161,1.767,1.636a5.48,5.48,0,0,0,8.581-1.445,3.146,3.146,0,0,0,.319-3c-.58-1.234-1.316-2.4-2.112-3.816L86.879,427.975l-1.721-1.863c.742-.514,1.343-.947,1.96-1.356q7.045-4.674,14.093-9.343c.4-.269.794-.563,1.191-.845a1.36,1.36,0,0,0,.341-2.15c-.331-.469-.618-.968-1.2-1.885.753.24,1.062.242,1.2.4q3.019,3.449,5.99,6.941a5.393,5.393,0,0,1,.638,1.075c.956,1.889,1.484,3.836.071,5.7a5.819,5.819,0,0,1-5.854,2.453A32,32,0,0,1,98.58,425.311Z" transform="translate(-14.536 -112.875)" fill="#fff"/><path d="M167.086,333.947c0-.811-.021-1.622,0-2.431.136-4.521.216-9.045.457-13.56.11-2.053.764-2.383,2.98-1.929-2.248,6.138-2.043,12.557-2.187,18.936-.031,1.383,0,2.768,0,4.031-1.183.7-1.73.174-2.225-.618-1.438-2.3-2.917-4.579-4.344-6.887-1.94-3.138-3.845-6.3-5.771-9.443-.352-.575-.736-1.132-1.348-2.069-.106.9-.2,1.4-.219,1.91q-.337,7.2-.657,14.393a10.418,10.418,0,0,1-.138,1.454c-.306,1.62-.684,1.861-2.788,1.727.4-1.678.864-3.318,1.18-4.987a87.365,87.365,0,0,0,1.124-14.765c.038-2.175-.248-2.4-2.368-2.4-.313,0-.627-.067-1.407-.158a6.62,6.62,0,0,1,1.267-.814c.735-.2,1.5-.3,2.246-.464a3.1,3.1,0,0,1,3.733,1.813c2.3,4.057,4.747,8.026,7.157,12.018.893,1.481,1.846,2.925,2.771,4.386Z" transform="translate(-25.785 -96.274)" fill="#fff"/><path d="M153.313,468.605a11.434,11.434,0,0,1-.1,1.178c-.915,5.436-6.64,11.2-12.053,12.377-5.627,1.223-12.564-4.44-10.447-11.1,1.851-5.821,5.674-9.907,11.71-11.4C147.768,458.334,153.316,462.89,153.313,468.605Zm-2.362-1.333a22.157,22.157,0,0,0-.431-2.252,5.694,5.694,0,0,0-8.459-3.233,17.87,17.87,0,0,0-8.924,11.285,5.759,5.759,0,0,0,2.049,6.529c2.191,1.707,4.527,1.462,6.848.24a10.3,10.3,0,0,0,1.573-1.017,20.22,20.22,0,0,0,6.08-7.564A31.654,31.654,0,0,0,150.95,467.272Z" transform="translate(-22.447 -121.44)" fill="#fff"/><path d="M314.161,444.862l-2.433.4c-.02-.865-.065-1.59-.048-2.314q.205-8.36.43-16.719c.012-.487.024-.977-.006-1.463-.087-1.411-.348-1.664-1.749-1.776a2.764,2.764,0,0,1-1.575-.5,3.341,3.341,0,0,1,.981-.441c3.113-.285,6.227-.586,9.347-.754a6.61,6.61,0,0,1,2.635.539,4.342,4.342,0,0,1,2.933,4.171,6.507,6.507,0,0,1-3.258,6.135c-.817.511-1.731.867-2.753,1.368a8.256,8.256,0,0,0,.568,1.231c1.519,2.249,3.011,4.52,4.617,6.705,1.122,1.525,2.565,2.575,4.651,2.119.141-.031.329.153.516.247-1.9,1.844-4.394,2.057-6.07.416a20.932,20.932,0,0,1-2.786-3.375c-1.645-2.48-3.165-5.042-4.895-7.825,1-.183,1.664-.286,2.32-.429a5.519,5.519,0,0,0,3.832-7.975,3.8,3.8,0,0,0-2.526-2.022,6.616,6.616,0,0,0-4.064.148C314.609,430.04,314.387,437.39,314.161,444.862Z" transform="translate(-53.708 -114.76)" fill="#fff"/><path d="M216.73,506.059a17.038,17.038,0,0,1-6.642,12.243,8.979,8.979,0,0,1-10.559.462c-3.223-1.957-4.673-5.3-3.995-9.349a17.467,17.467,0,0,1,5.759-10.609,8.918,8.918,0,0,1,10.091-1.656C214.936,498.71,216.726,501.457,216.73,506.059Zm-2.715-1.829a19.022,19.022,0,0,0-.629-2.818c-1.492-4.026-6.26-5.059-9.575-2.021-2.926,2.682-4.392,6.208-5.233,10a12.12,12.12,0,0,0-.29,3.513c.2,2.6,1.311,4.671,3.92,5.639,2.633.977,4.829.069,6.6-1.824A20.222,20.222,0,0,0,214.014,504.23Z" transform="translate(-33.842 -127.893)" fill="#fff"/><path d="M436.618,483.2c-.106,4.5-1.88,7.3-5.267,9.05a8.084,8.084,0,0,1-9.221-.883c-4.26-3.328-6.864-7.663-6.906-13.211-.027-3.7,1.9-6.316,5.092-8.023a8,8,0,0,1,8.882.539A17.235,17.235,0,0,1,436.618,483.2Zm-13.206-12.043c-4.265.026-7.052,3.322-6.289,6.974a18.352,18.352,0,0,0,8.365,11.967,6.051,6.051,0,0,0,.932.463,5.712,5.712,0,0,0,6.264-.787,5.522,5.522,0,0,0,1.938-5.808,18.19,18.19,0,0,0-8.152-11.632A13.223,13.223,0,0,0,423.413,471.154Z" transform="translate(-72.353 -123.123)" fill="#fff"/><path d="M415.968,319.181c1.674-1.288,9.736-1.871,14.962-1.174a7.269,7.269,0,0,1-.337,5.38c-.935-.367-.488-1.184-.556-1.787-.192-1.7-.487-2.123-2.154-2.209-1.861-.095-3.732-.021-5.837-.021v9.358h7.447c.1,1.451-.7,1.689-1.571,1.7-1.462.015-2.924-.065-4.385-.122-.48-.019-.958-.094-1.729-.173-.078,1.651-.135,3.211-.228,4.77-.095,1.589-.224,3.177-.349,4.9.737,0,1.329-.006,1.92,0q2.4.027,4.8.064c2.1.031,2.725-.425,3.324-2.4.139-.46.336-.9.628-1.675.69,1.98.266,4.516-.756,5.385a2.776,2.776,0,0,1-1.3.558,4.832,4.832,0,0,1-1.663-.02,26.786,26.786,0,0,0-9.4-.143c0-.943-.021-1.761,0-2.579.166-5.571.366-11.142.5-16.714.063-2.616.007-2.611-2.545-2.806A3.345,3.345,0,0,1,415.968,319.181Z" transform="translate(-72.484 -96.615)" fill="#fff"/><path d="M79.892,418.244a6.3,6.3,0,0,1-3.374-3.065,2.368,2.368,0,0,1,.463-2.725c1.18-1.457,2.461-2.833,3.727-4.219.56-.614,1.184-1.168,1.948-1.913-1.308-2.1-2.616-4.2-3.969-6.373-2.789.5-5.45.982-8.116,1.438-1.756.3-1.905.191-2.81-1.839.635-.119,1.227-.257,1.828-.336,3.025-.4,6.042-.883,9.078-1.139,4.56-.384,9.134-.6,13.7-.9a1.789,1.789,0,0,1,2.049,1.066,2.033,2.033,0,0,1-.192,1.459c-.211.4-.708.65-1.073.973-3.544,3.142-7.113,6.258-10.617,9.444a24.912,24.912,0,0,0-2.777,3.111c-1,1.272-1.26,2.628-.042,3.968a1.781,1.781,0,0,1,.266.539C80,417.787,79.962,417.866,79.892,418.244Zm11.58-19.5-.172-.411-11.156,1.321,3.488,5.821Z" transform="translate(-11.489 -110.533)" fill="#fff"/><path d="M262.981,445.258c.162-2.154.362-3.947.418-5.743q.212-6.791.31-13.586c.043-2.709.006-2.705-2.715-2.9a3.217,3.217,0,0,1-.768-.361,4.151,4.151,0,0,1,1.112-.582c1.866-.219,3.735-.448,5.61-.545,2.156-.111,4.319-.1,6.479-.121.673-.006,1.347.063,2.195.106a14.834,14.834,0,0,1-.527,5.732c-.987-.65-.646-1.412-.7-2.041-.165-1.768-.524-2.173-2.329-2.225s-3.594-.011-5.616-.011v9.232c2.306.627,4.792.188,7.251.148.438,1-.017,1.439-.809,1.554a14.675,14.675,0,0,1-2.5.122c-1.316-.036-2.63-.148-4.193-.242-.19,3.218-.373,6.308-.564,9.545.5.049.953.129,1.41.133q2.716.023,5.431.007c1.994-.011,2.564-.449,3.152-2.345.148-.478.345-.94.607-1.648,1.453,3.454-.429,6.26-3.624,5.8A26.052,26.052,0,0,0,262.981,445.258Z" transform="translate(-45.203 -114.781)" fill="#fff"/><path d="M294.77,421.566c.577,2.992,1.1,5.931,1.716,8.851.6,2.86,1.277,5.7,1.952,8.547a16.228,16.228,0,0,0,.725,2.177c.676,1.714,1.733,2.861,3.8,2.448.168-.033.367.087.571.141-1.534,2.214-5.007,2.247-6.131-.012a34.609,34.609,0,0,1-1.73-4.907c-.314-.985-.525-2-.777-2.983h-7.512c-.544,1.476-1.05,2.828-1.542,4.185-.427,1.178-.814,2.371-1.264,3.54-.657,1.7-.755,1.74-3.006,1.579.171-.515.3-1.011.5-1.481,1.2-2.879,2.321-5.8,3.647-8.618,1.977-4.207,4.111-8.34,6.16-12.514C292.452,421.348,293.36,421.186,294.77,421.566Zm-6.838,12.681h6.647l-1.882-10-.485-.032C290.808,427.506,289.4,430.8,287.932,434.247Z" transform="translate(-48.942 -114.776)" fill="#fff"/><path d="M379.375,505.308l6.965-2.845a.8.8,0,0,1,.049,1.465A10.91,10.91,0,0,1,384,505.168c-1.292.492-2.628.867-4.139,1.354,1.047,3.087,2.059,6.073,3.1,9.133,2.4-.953,4.719-1.854,7.019-2.794a2.31,2.31,0,0,0,1.462-2.516c-.043-.667-.133-1.332-.239-2.368.519.4.87.525.953.752a11.453,11.453,0,0,1,.609,2.2c.364,2.415-.208,3.326-2.63,3.887a24.1,24.1,0,0,0-8.815,3.513c-.246-.554-.452-.955-.6-1.375-2.047-5.618-4.057-11.249-6.141-16.854-.911-2.449-.975-2.418-3.426-1.631a2.993,2.993,0,0,1-.826.01c1.03-1.724,9.994-6.045,13.821-6.657a16.03,16.03,0,0,1,1.557,5.294c-1.137-.212-1.119-1.024-1.408-1.58-.831-1.6-1.311-1.848-2.974-1.245-1.745.633-3.456,1.36-5.248,2.072.33.953.561,1.671.825,2.376C377.671,500.821,378.462,502.9,379.375,505.308Z" transform="translate(-64.488 -127.115)" fill="#fff"/><path d="M482.88,411.768c-.63-.337-1.249-.7-1.893-1.008-1.24-.6-1.793-.556-2.536.494-1.152,1.632-2.175,3.355-3.356,5.2l7.932,5.242,4.082-6.472c1.095.422.974,1.2.627,1.886a23.132,23.132,0,0,1-1.644,2.658c-.582.848-1.231,1.649-1.96,2.612l7.913,5.571c1.361-2.137,2.655-4.1,3.88-6.114.814-1.335.72-2.027-.231-3.234-.376-.478-.751-.957-1.118-1.443-.026-.035.027-.129.044-.195a5.268,5.268,0,0,1,3.807,3.235,3.279,3.279,0,0,1-1.008,2.834c-1.189,1.542-2.445,3.038-3.536,4.647a29.694,29.694,0,0,0-1.733,3.419c-.344-.22-.631-.393-.907-.581-5.018-3.393-10.018-6.812-15.06-10.17-2.253-1.5-2.287-1.441-3.877.781-.1.146-.319.211-.765.492a5.36,5.36,0,0,1,.193-1.484c.931-1.867,1.881-3.726,2.9-5.544,1.056-1.881,2.178-3.727,3.316-5.562.685-1.105.944-1.137,2.008-.513a10.7,10.7,0,0,1,3.161,2.83Z" transform="translate(-82.218 -112.452)" fill="#fff"/><path d="M331.393,519.321l7.44-1.425c.487.935.052,1.487-.786,1.692-1.347.329-2.723.546-4.093.774-.674.112-1.361.143-2.285.235.435,3.25.853,6.381,1.282,9.592,2.556-.483,5.005-.932,7.448-1.412a2.329,2.329,0,0,0,1.895-2.213,8.068,8.068,0,0,1,.412-1.942,4.571,4.571,0,0,1,.53,4.4c-.412,1.4-1.631,1.7-2.823,1.721a24.758,24.758,0,0,0-9.6,1.732c-.62-4.094-1.19-8.015-1.815-11.928-.4-2.474-.859-4.937-1.314-7.4-.444-2.405-.591-2.492-3-2.068-.238.042-.5-.024-.9-.433a5.35,5.35,0,0,1,1.222-.7c3.3-.853,6.605-1.668,9.913-2.478a16.935,16.935,0,0,1,2.66-.52c.388-.031,1.1.257,1.165.526a20.394,20.394,0,0,1,.56,4.983c-1.146-.2-1.005-.933-1.143-1.475-.527-2.076-1-2.4-3.08-2.027-1.7.3-3.385.654-5.243,1.015Z" transform="translate(-56.336 -129.763)" fill="#fff"/><path d="M450.346,317.989c.742,3.8,1.429,7.484,2.194,11.155.454,2.179.953,4.355,1.57,6.492,1.108,3.828,1.42,4.062,5,4.631-1.947,2.293-5.222,2.074-6.353-.553a56.424,56.424,0,0,1-1.836-5.759c-.18-.585-.325-1.18-.475-1.731-2.234,0-4.317.016-6.4-.007-.949-.01-1.319.543-1.592,1.344q-1.08,3.162-2.25,6.293c-.691,1.854-.835,1.915-3.108,1.714.228-.6.426-1.155.654-1.7,1.178-2.814,2.271-5.668,3.568-8.427,1.979-4.206,4.116-8.337,6.151-12.517C448.07,317.7,449.019,317.712,450.346,317.989Zm-2.084,2.426c-1.843,2.759-4.291,8.807-4.279,10.3h6.18C449.526,327.26,448.922,323.992,448.262,320.415Z" transform="translate(-76.185 -96.637)" fill="#fff"/><path d="M437.984,457.364c4.9,5.987,9.562,11.68,14.306,17.473l-1.673,1.914c-.6-.7-1.1-1.246-1.57-1.818q-5.245-6.359-10.484-12.725c-.4-.483-.826-.941-1.243-1.409a1.377,1.377,0,0,0-2.182-.1,3.236,3.236,0,0,1-1.63.864c.087-.29.088-.661.274-.86a75.014,75.014,0,0,1,6.336-6.614c4.382-3.672,9.014-1.914,10.32,3.706a8.1,8.1,0,0,1-3.51,8.112c-.129.072-.365-.049-.857-.13.478-.6.828-1.052,1.182-1.5a6.216,6.216,0,0,0-2.933-9.7,3.461,3.461,0,0,0-3.016.3C440.205,455.57,439.211,456.432,437.984,457.364Z" transform="translate(-75.556 -120.167)" fill="#fff"/><path d="M344.832,506.389c.858-1.38,3.63-2.953,4.725-2.637a3.034,3.034,0,0,1,1.453,1.076,27.26,27.26,0,0,1,2.159,3.325c2.159,3.976,4.259,7.983,6.383,11.977.315.591.639,1.178,1.093,2.013a5.311,5.311,0,0,0,.412-.971c.664-4.542,1.357-9.081,1.937-13.635a9.134,9.134,0,0,0-.179-3.521,26.776,26.776,0,0,0-1.749-3.891c1.741-.933,3.308-.329,3.642,1.811a13.555,13.555,0,0,1,.035,4.16c-.938,5.837-2,11.652-3.011,17.477-.2,1.153-.652,1.982-2.173,1.822-.289-.518-.63-1.11-.952-1.713-2.362-4.42-4.706-8.851-7.091-13.258a27.6,27.6,0,0,0-1.906-2.992c-1.17-1.622-1.66-1.744-3.728-1.183A8.629,8.629,0,0,1,344.832,506.389Z" transform="translate(-60.023 -128.495)" fill="#fff"/><path d="M254.678,527.3c0,.655-.031,1.312.006,1.965a3.234,3.234,0,0,0,2.6,3.341,8.173,8.173,0,0,0,3.473.15,4.174,4.174,0,0,0,2.254-7,16.261,16.261,0,0,0-2.182-1.929c-1.079-.877-2.264-1.637-3.269-2.59a6.229,6.229,0,0,1,.718-9.764,8.3,8.3,0,0,1,8.7-.33,1.828,1.828,0,0,1,1.048,2.052c-.175.958-.286,1.928-.495,2.878-.058.26-.365.464-.811,1-.1-.827-.186-1.264-.209-1.7-.11-2.112-.85-3.165-2.671-3.757A4.5,4.5,0,0,0,258.763,513a4.311,4.311,0,0,0-.151,4.9,14.873,14.873,0,0,0,2.512,2.471c1.065.892,2.284,1.6,3.322,2.524a6.228,6.228,0,0,1-1.052,10.211c-3.03,1.708-6.139,1.462-9.223.065a1.633,1.633,0,0,1-1.036-2.021c.28-1.314.53-2.634.794-3.952Z" transform="translate(-43.951 -130.311)" fill="#fff"/><path d="M342.682,444.959l-2.351.257c.167-7.431.331-14.654.494-21.916a9.037,9.037,0,0,0-4.446-.215c-1.205.143-1.721,1.084-1.937,2.18-.129.663-.187,1.34-.331,2.406-.454-.524-.69-.761-.878-1.032-.067-.1-.015-.272-.023-.411-.247-4.179.483-4.852,4.676-4.774,4.105.076,8.214-.013,12.32-.024.33,0,.661.042.984.064-.027,1.551-.214,1.862-1.511,1.928a36.417,36.417,0,0,1-3.756-.108c-.69-.035-1.375-.139-2.314-.238C342.974,430.37,343.361,437.606,342.682,444.959Z" transform="translate(-57.98 -114.784)" fill="#fff"/><path d="M502.557,358.55c1.44.615,1.653.883,1.265,2.1a30.911,30.911,0,0,1-1.292,3.073c-.361.817-.751,1.622-1.215,2.618l20.07,8.425c-.191.839-.365,1.6-.563,2.469l-20.634-8.5c-.557,1.523-1.095,2.79-1.476,4.1a2.293,2.293,0,0,0,1.234,2.636c.627.412,1.295.763,1.933,1.134-.09.226-.133.454-.189.457a5.852,5.852,0,0,1-4.425-1.81,2.579,2.579,0,0,1-.322-1.929,10.36,10.36,0,0,1,.774-2.148q2.249-5.949,4.5-11.9C502.31,359.025,502.443,358.79,502.557,358.55Z" transform="translate(-86.661 -103.769)" fill="#fff"/><path d="M406.034,506.215c1.944-1.148,3.8-2.23,5.643-3.336,1.8-1.082,2.026-1.724,1.434-3.8-.13-.455-.219-.922-.313-1.387-.009-.045.078-.109.12-.164a5.77,5.77,0,0,1,2.167,4.315c-.078,1.514-1.2,2.088-2.367,2.614-1.394.628-2.847,1.147-4.173,1.895s-2.52,1.715-3.908,2.681c-.224-.343-.493-.7-.71-1.1-2.967-5.351-5.9-10.72-8.9-16.053-1.189-2.115-1.3-2.087-3.539-.831a4.006,4.006,0,0,1-.811.236c.527-1.439,2.665-3.517,3.781-3.545a2.382,2.382,0,0,1,1.563.728,8.872,8.872,0,0,1,1.228,1.928q3.988,7.213,7.957,14.435C405.47,505.307,405.765,505.766,406.034,506.215Z" transform="translate(-68.054 -126.399)" fill="#fff"/><path d="M182.2,510.25l-2.335-.9c.722-1.3,1.365-2.445,1.989-3.6,2.447-4.524,4.909-9.041,7.323-13.583,1.246-2.347,1.2-2.365-1.2-3.722-.153-.087-.241-.291-.622-.775a8.324,8.324,0,0,1,5.188,1.632,1.585,1.585,0,0,1,.3,1.313,6.281,6.281,0,0,1-.737,1.712q-4.64,8.516-9.3,17.019C182.672,509.591,182.5,509.808,182.2,510.25Z" transform="translate(-31.125 -126.388)" fill="#fff"/><path d="M289.283,434.848c1.47-3.447,2.875-6.741,4.28-10.037l.485.032,1.882,10Z" transform="translate(-50.293 -115.376)" fill="#fff"/><path d="M310.148,628.7c-2.493.5-10.1.437-11.889-.1.624-.156.98-.268,1.344-.331,1.915-.332,2.446-.72,2.526-2.687.129-3.117.035-6.243.035-9.639-4.207-.173-8.332-.118-12.642-.016,0,3.475-.035,6.8.019,10.12a2.18,2.18,0,0,0,1.962,2.124c.56.125,1.126.222,2.107.413-2,.546-9.719.6-11.763-.068.546-.1,1.09-.221,1.639-.312a2.122,2.122,0,0,0,1.923-1.9,12.464,12.464,0,0,0,.179-1.867q.019-9.2.006-18.4c0-.139,0-.279-.009-.417-.118-2.349-.569-2.862-2.908-3.3-.262-.049-.526-.09-.893-.153,1.18-.686,8.879-.842,11.817-.2-.981.242-1.574.4-2.171.533a2.184,2.184,0,0,0-1.895,2.187c-.055,3.12-.019,6.242-.019,9.659h12.424a4.348,4.348,0,0,0,.294-1.034c.021-2.508.064-5.018-.008-7.525-.074-2.613-.5-3.016-3.151-3.494a5.892,5.892,0,0,1-.62-.186c1.207-.636,8.878-.766,11.708-.13-.941.24-1.543.4-2.147.547a2.207,2.207,0,0,0-1.837,2.224c-.007.139-.022.279-.022.418,0,6.759-.028,13.518.012,20.277.011,1.874.584,2.43,2.424,2.8.2.041.42.029.62.079S309.582,628.469,310.148,628.7Z" transform="translate(-48.979 -146.337)" fill="#fff"/><path d="M224.15,602.016c-3.732.965-6.042,3.817-8.6,6.344-1.779,1.756-3.6,3.472-5.295,5.1.143.441.146.611.233.7,3.749,3.736,7.481,7.488,11.272,11.18a10.107,10.107,0,0,0,5.455,2.9,2.9,2.9,0,0,1,.744.422c-1.949.532-11.1.526-12.777.046,2.51-1.48,2.566-1.88.434-4.013q-3.988-3.991-8.02-7.938c-.325-.32-.7-.586-1.4-1.162,0,1.815,0,3.244,0,4.673,0,1.6-.022,3.2.02,4.805.059,2.291.5,2.782,2.7,3.213.309.06.61.158,1.09.286-1.5.573-9,.682-11.747.167a10.627,10.627,0,0,1,1.321-.445c2.055-.337,2.452-.725,2.689-2.781a14.436,14.436,0,0,0,.073-1.669q.007-8.568,0-17.136c0-.348,0-.7-.019-1.045-.144-2.409-.546-2.87-2.877-3.336-.316-.064-.628-.147-1.115-.261,1.6-.564,9.168-.652,11.954-.1-.951.247-1.463.4-1.983.511a2.265,2.265,0,0,0-2.038,2.286c-.037,3.177-.012,6.355-.012,9.864.614-.477,1-.728,1.326-1.037,2.132-2,4.269-4,6.369-6.036a19.56,19.56,0,0,0,2.081-2.338c1.216-1.632.947-2.314-1.027-2.9a4.173,4.173,0,0,1-.574-.276C215.814,601.5,221.614,601.4,224.15,602.016Z" transform="translate(-34.347 -146.342)" fill="#fff"/><path d="M262.722,600.717v9.354l-.4.09c-.265-.874-.5-1.757-.8-2.62a7.245,7.245,0,0,0-7.536-5.059,4.731,4.731,0,0,0-3.129,1.49,3.571,3.571,0,0,0-.021,5.228,10.381,10.381,0,0,0,1.951,1.561c1.474.921,3,1.757,4.5,2.644,1.377.816,2.795,1.575,4.1,2.5,2.54,1.794,3.82,4.243,3.176,7.386-.67,3.273-2.873,5.136-6.011,5.975a11.035,11.035,0,0,1-5.78-.153c-.739-.2-1.46-.46-2.193-.677-2.077-.614-2.078-.61-3.786,1.239-.022-3.32-.022-6.31,0-9.516,1.125.5.947,1.4,1.143,2.029a7.651,7.651,0,0,0,8.125,5.767,7.064,7.064,0,0,0,2.417-.571,4.163,4.163,0,0,0,1.61-6.61,9.663,9.663,0,0,0-2.387-1.985c-1.766-1.112-3.626-2.073-5.4-3.171a22.553,22.553,0,0,1-3.4-2.412c-3.962-3.626-2.933-9.467,2-11.643a8.714,8.714,0,0,1,5.517-.521,20.014,20.014,0,0,1,2.588.8C261.068,602.6,261.062,602.611,262.722,600.717Z" transform="translate(-42.794 -146.189)" fill="#fff"/><path d="M408.375,628.361c2.592-.595,3.43-2.718,4.311-4.763,3-6.966,5.959-13.945,8.945-20.915.286-.668.639-1.307,1.185-2.414.543,1.123.89,1.766,1.172,2.437q4.2,10.006,8.385,20.019c.08.193.14.394.227.584,1,2.2,1.734,4.654,5.242,4.862-1.984.8-9.284.829-11.013.28.064-.109.1-.286.2-.318,2.658-.921,2.823-1.221,1.814-3.868-.59-1.549-1.277-3.061-1.909-4.563H416.282c-.725,1.7-1.486,3.34-2.127,5.026-.807,2.119-.462,2.7,1.721,3.243a5.421,5.421,0,0,1,.76.28c.04.016.05.109.074.167A20.375,20.375,0,0,1,408.375,628.361Zm8.638-10.4c3.228.426,7.783.3,9.181-.234l-4.5-10.658C420.023,610.964,418.559,614.367,417.013,617.961Z" transform="translate(-71.154 -146.111)" fill="#fff"/><path d="M345.34,628.512c.473-.209.736-.348,1.014-.445,1.678-.582,1.961-1.1,1.516-2.79a1.388,1.388,0,0,0-.066-.2q-1.122-2.572-2.245-5.144c-1.655-.073-3.309-.178-4.965-.212-1.806-.037-3.612-.009-5.594-.009-.807,1.94-1.685,3.828-2.375,5.783-.48,1.363,0,2.035,1.423,2.481.264.083.555.076.818.159a2.467,2.467,0,0,1,.512.318c-1.362.594-6.345.647-8.179.113,0-.063-.007-.177.013-.183,2.415-.709,3.323-2.727,4.2-4.788q4.468-10.46,8.961-20.909c.265-.617.579-1.213.9-1.874,1,.4,1.061,1.241,1.337,1.895q4.178,9.9,8.319,19.822c.134.321.265.643.4.963.944,2.173,1.763,4.457,4.939,4.807C354.547,629.044,347.633,629.114,345.34,628.512Zm-9.662-10.4H345l-4.4-10.474-.428.03C338.707,611.07,337.245,614.47,335.677,618.114Z" transform="translate(-56.934 -146.206)" fill="#fff"/><path d="M181.1,628.662H170.717l-.087-.3c.322-.137.636-.3.968-.408,1.6-.526,1.966-1.025,1.447-2.6-.629-1.907-1.44-3.754-2.183-5.652H160.14c-.734,1.749-1.549,3.508-2.211,5.323-.673,1.843-.273,2.43,1.714,2.927.323.08.643.176,1.066.293-1.25.723-6.575.8-8.8.055,3.3-.669,4.01-3.261,5.009-5.568,2.874-6.64,5.695-13.3,8.544-19.952.293-.685.634-1.347,1.183-2.5.529,1.056.888,1.679,1.163,2.337q4.082,9.716,8.139,19.442c.268.642.548,1.279.814,1.922.85,2.048,1.876,3.915,4.469,4.213Zm-10.9-10.606L165.693,607.4c-1.476,2.331-4.32,9.192-4.466,10.659Z" transform="translate(-26.229 -146.113)" fill="#fff"/><path d="M383.7,615.571c.624-.933,1.091-1.594,1.52-2.278,1.552-2.475,3.172-4.913,4.608-7.454,1.03-1.821.576-2.69-1.436-3.457-.239-.092-.467-.216-.807-.375a29.106,29.106,0,0,1,9.537-.036,10.438,10.438,0,0,1-1.186.529,6.036,6.036,0,0,0-3.442,2.572q-3.819,5.857-7.54,11.778a3.184,3.184,0,0,0-.4,1.571c-.041,2.157-.062,4.316,0,6.472.079,2.622.455,2.981,3.14,3.435a2.233,2.233,0,0,1,.549.275c-1.357.56-8.911.652-11.571.063.786-.2,1.2-.323,1.612-.406,1.617-.323,2.24-.845,2.315-2.459.115-2.5.1-5.01.032-7.513a3.679,3.679,0,0,0-.755-1.67c-1.96-3.041-3.945-6.067-5.931-9.091-2.378-3.622-2.382-3.619-5.6-5.576,1.687-.517,9.883-.492,11.576.1-.666.2-1.192.32-1.7.506-1.354.5-1.69,1.25-1.139,2.592a8.008,8.008,0,0,0,.708,1.275C379.7,609.394,381.622,612.356,383.7,615.571Z" transform="translate(-64.141 -146.341)" fill="#fff"/></g></svg>